<svg xmlns="http://www.w3.org/2000/svg" width="74.25" height="74.25" viewBox="0 0 74.25 74.25">
  <defs>
    <style>
      .cls-1 {
        fill: #0d0d0d;
        fill-rule: evenodd;
      }
    </style>
  </defs>
  <path id="banknote" class="cls-1" d="M568.266,889.905l-23.2-23.2a4.64,4.64,0,0,0-7.715,1.91,21.615,21.615,0,0,1-5.559,9.059c-3.591,3.589-8.268,6.308-13.219,9.18-5.252,3.046-10.679,6.2-15.127,10.647a30.644,30.644,0,0,0-7.861,12.879,4.645,4.645,0,0,0,1.151,4.654l23.2,23.2a4.639,4.639,0,0,0,7.716-1.912,21.6,21.6,0,0,1,5.56-9.059c3.59-3.59,8.266-6.3,13.22-9.179,5.25-3.049,10.677-6.2,15.125-10.648a30.627,30.627,0,0,0,7.86-12.88A4.634,4.634,0,0,0,568.266,889.905ZM523.22,934.951c-7.686-7.686-15.52-15.521-23.206-23.2,6.594-21.35,35.174-20.416,41.766-41.766,7.686,7.682,15.519,15.518,23.205,23.2C558.391,914.529,529.811,913.6,523.22,934.951Zm17.542-35.037a6.181,6.181,0,0,0-2.284-1.277,6.7,6.7,0,0,0-2.293-.245,8.216,8.216,0,0,0-2.32.531c-0.779.3-1.563,0.635-2.352,1.014-1.246-1.433-2.493-2.845-3.739-4.159a2.611,2.611,0,0,1,1.632-.785,5.17,5.17,0,0,1,1.513.156c0.49,0.119.938,0.224,1.351,0.308a1.242,1.242,0,0,0,1.1-.278,1.547,1.547,0,0,0,.549-1.121,1.867,1.867,0,0,0-.53-1.335A3,3,0,0,0,531.6,891.7a5.5,5.5,0,0,0-2.157.048,7.32,7.32,0,0,0-2.094.836,8,8,0,0,0-1.586,1.178c-0.152-.147-0.3-0.288-0.453-0.426a0.865,0.865,0,0,0-.626-0.232,0.812,0.812,0,0,0-.634.308,0.89,0.89,0,0,0,.081,1.246c0.152,0.128.3,0.254,0.454,0.385a10.642,10.642,0,0,0-1.468,2.344,7.814,7.814,0,0,0-.707,2.474,4.9,4.9,0,0,0,.244,2.244,4.279,4.279,0,0,0,1.378,1.841,5.336,5.336,0,0,0,3.87,1.2,11.632,11.632,0,0,0,4.813-1.459c1.371,1.582,2.744,3.155,4.115,4.615a3.652,3.652,0,0,1-1.537.86,2.443,2.443,0,0,1-1.21-.022,3.82,3.82,0,0,1-1.006-.486,7.5,7.5,0,0,0-.915-0.544,2.1,2.1,0,0,0-.924-0.234,1.572,1.572,0,0,0-1.024.467,1.483,1.483,0,0,0-.572,1.15,2.028,2.028,0,0,0,.589,1.314,4.733,4.733,0,0,0,1.528,1.11,5.69,5.69,0,0,0,2.089.53,5.8,5.8,0,0,0,2.438-.379,7.063,7.063,0,0,0,2.551-1.722c0.406,0.392.814,0.769,1.22,1.132a0.89,0.89,0,0,0,1.259-.123,0.89,0.89,0,0,0,.218-0.679,0.791,0.791,0,0,0-.29-0.567q-0.612-.487-1.224-1.032a12.666,12.666,0,0,0,1.663-2.638,8.11,8.11,0,0,0,.739-2.553,4.554,4.554,0,0,0-.276-2.183A4.423,4.423,0,0,0,540.762,899.914Zm-12.97,1.573a2.252,2.252,0,0,1-1.731-.675,1.7,1.7,0,0,1-.453-0.747,2.353,2.353,0,0,1-.091-0.971,3.061,3.061,0,0,1,.318-1.078,4.278,4.278,0,0,1,.752-1.086c1.176,1.168,2.35,2.451,3.526,3.778A5.483,5.483,0,0,1,527.792,901.487Zm10.945,4.645a4.924,4.924,0,0,1-.73,1.031c-1.3-1.315-2.6-2.758-3.9-4.239,0.33-.15.679-0.3,1.056-0.462a5.051,5.051,0,0,1,1.128-.326,2.9,2.9,0,0,1,1.147.051,2.332,2.332,0,0,1,1.065.62,2.126,2.126,0,0,1,.616,1.032,2.813,2.813,0,0,1,.032,1.135A3.788,3.788,0,0,1,538.737,906.132Zm-9.214,10.674h0a42.045,42.045,0,0,0-4.176,3.6,33.841,33.841,0,0,0-3.39,3.943l-1.586,2.165,0,0.006a1.162,1.162,0,1,0,1.974,1.224l1.482-2.032a31.485,31.485,0,0,1,3.159-3.664,36.345,36.345,0,0,1,3.976-3.424l0,0A1.157,1.157,0,1,0,529.523,916.806Zm8.493-33.563a38.746,38.746,0,0,1-3.89,3.347,1.172,1.172,0,1,0,1.35,1.893l0.007,0a42.6,42.6,0,0,0,4.174-3.6,33.724,33.724,0,0,0,3.389-3.94l1.587-2.172,0-.006a1.169,1.169,0,0,0-1.713-1.588,1.346,1.346,0,0,0-.2.287l-1.543,2.112A31.037,31.037,0,0,1,538.016,883.243Z" transform="translate(-495.375 -865.344)"/>
</svg>
